# xmcd
#
# Track frame offsets:
# 150
# 10480
# 23675
# 35705
# 45580
# 57317
# 66760
# 81482
# 93517
# 105635
# 118672
# 134115
# 145817
# 156290
# 169350
# 184052
#
# Disc length: 2622 seconds
#
#
# Revision: 0
# Processed by: cddbd v1.5.1PL0 Copyright (c) Steve Scherf et al.
# Submitted via: FreeRIP 2.80 
#
DISCID=e80a3c10
DTITLE=Pedro Vargas - 
DYEAR=1900
DGENRE=Latin
TTITLE0=Profecia
TTITLE1=El Reloj
TTITLE2=Tu Me Acostumbraste
TTITLE3=La Barca
TTITLE4=Franqueza
TTITLE5=Esperame en el Cielo
TTITLE6=Oyeme,  Amame
TTITLE7=No Pidas Imposible
TTITLE8=Nuestro Idilio
TTITLE9=Tu Condena
TTITLE10=Te me Olvidas
TTITLE11=Dejame Creer
TTITLE12=Cuentame tus Penas de Amor
TTITLE13=La Noche de Anoche
TTITLE14=Anoche Apendi
TTITLE15=De ti estoy Enamorado
EXTD=
EXTT0=
EXTT1=
EXTT2=
EXTT3=
EXTT4=
EXTT5=
EXTT6=
EXTT7=
EXTT8=
EXTT9=
EXTT10=
EXTT11=
EXTT12=
EXTT13=
EXTT14=
EXTT15=
PLAYORDER=
